<?xml version="1.0" encoding="utf-8"?>
<svg viewBox="-14.925 35.809 520.46 291.316" xmlns="http://www.w3.org/2000/svg">
  <path d="M -7.578 225.56 L 41.302 225.56 L 42.242 245.112 L 40.55 245.112 Q 37.072 234.96 32.513 231.294 Q 27.954 227.628 18.93 227.628 L 16.298 227.628 L 16.298 258.178 L 20.528 258.178 Q 25.04 258.178 28.048 254.888 Q 31.056 251.598 32.184 245.864 L 33.594 245.864 L 33.594 273.688 L 31.996 273.688 Q 30.492 266.638 27.813 263.63 Q 25.134 260.622 20.528 260.622 L 16.298 260.622 L 16.298 289.292 L 27.954 289.292 L 27.954 291.36 L -7.578 291.36 L -7.578 289.292 L -2.032 289.292 L -2.032 227.628 L -7.578 227.628 Z" transform="matrix(1.295683, 0, 0, 1, 2.824357, 0)" style="fill: rgb(0, 152, 201); paint-order: stroke; white-space: pre;"/>
  <path d="M 64.415 269.27 L 67.141 269.27 L 67.141 262.032 Q 67.141 253.102 66.154 250.047 Q 65.167 246.992 62.347 246.992 Q 60.655 246.992 59.292 247.885 Q 57.929 248.778 57.929 250.329 Q 57.929 251.88 58.493 253.478 L 60.843 253.478 Q 61.595 255.452 61.595 258.225 Q 61.595 260.998 59.245 263.019 Q 56.895 265.04 53.323 265.04 Q 45.239 265.04 45.239 257.238 Q 45.239 245.676 64.885 245.676 Q 76.071 245.676 80.348 249.483 Q 84.625 253.29 84.625 263.442 L 84.625 282.524 Q 84.625 287.412 87.351 287.412 Q 90.547 287.412 91.111 277.73 L 92.521 277.824 Q 92.145 286.096 89.419 289.198 Q 86.693 292.3 80.489 292.3 Q 69.209 292.3 67.517 285.344 Q 66.295 288.916 63.851 290.608 Q 61.407 292.3 56.707 292.3 Q 42.795 292.3 42.795 280.926 Q 42.795 274.252 48.106 271.761 Q 53.417 269.27 64.415 269.27 Z M 60.655 280.832 Q 60.655 285.72 61.172 287.13 Q 61.689 288.54 63.146 288.54 Q 64.603 288.54 65.872 286.143 Q 67.141 283.746 67.141 279.516 L 67.141 270.774 L 66.483 270.774 Q 60.655 270.774 60.655 279.328 L 60.655 280.832 Z" transform="matrix(1.295683, 0, 0, 1, 2.824357, 0)" style="fill: rgb(0, 152, 201); paint-order: stroke; white-space: pre;"/>
  <path d="M 119.763 247.368 Q 115.627 247.368 113.841 251.88 Q 112.055 256.392 112.055 266.826 L 112.055 271.714 Q 112.055 281.02 114.123 285.062 Q 116.191 289.104 121.737 289.104 Q 127.283 289.104 130.573 285.344 Q 133.863 281.584 134.803 276.79 L 136.495 276.978 Q 134.709 285.062 129.915 288.634 Q 125.027 292.3 116.473 292.3 Q 105.569 292.3 99.741 286.425 Q 93.913 280.55 93.913 269.223 Q 93.913 257.896 100.54 251.786 Q 107.167 245.676 119.011 245.676 Q 127.377 245.676 131.795 248.919 Q 136.213 252.162 136.213 257.05 Q 136.213 261.938 134.098 264.194 Q 131.983 266.45 128.27 266.45 Q 124.557 266.45 122.301 264.476 Q 120.045 262.502 120.045 258.648 Q 120.045 256.956 120.515 255.264 L 123.617 255.264 Q 124.275 253.384 124.275 251.88 Q 124.275 247.368 119.763 247.368 Z" transform="matrix(1.295683, 0, 0, 1, 2.824357, 0)" style="fill: rgb(0, 152, 201); paint-order: stroke; white-space: pre;"/>
  <path d="M 143.534 277.918 L 143.534 248.308 L 138.364 248.308 L 138.364 246.616 L 143.534 246.616 L 143.534 234.49 L 161.018 230.166 L 161.018 246.616 L 173.238 246.616 L 173.238 248.308 L 161.018 248.308 L 161.018 279.986 Q 161.018 284.404 161.911 286.472 Q 162.804 288.54 165.624 288.54 Q 168.444 288.54 170.559 285.72 Q 172.674 282.9 173.332 278.012 L 174.93 278.2 Q 174.178 284.686 170.794 288.493 Q 167.41 292.3 159.608 292.3 Q 151.806 292.3 147.67 289.198 Q 143.534 286.096 143.534 277.918 Z" transform="matrix(1.295683, 0, 0, 1, 2.824357, 0)" style="fill: rgb(0, 152, 201); paint-order: stroke; white-space: pre;"/>
  <path d="M 230.385 291.36 L 208.953 291.36 L 207.919 284.498 Q 206.415 288.258 203.454 290.279 Q 200.493 292.3 194.665 292.3 Q 180.095 292.3 180.095 276.602 L 180.095 248.308 L 174.831 248.308 L 174.831 246.616 L 197.579 246.616 L 197.579 278.858 Q 197.579 284.498 198.378 286.284 Q 199.177 288.07 201.574 288.07 Q 203.971 288.07 205.851 285.156 Q 207.731 282.242 207.731 277.072 L 207.731 248.308 L 203.407 248.308 L 203.407 246.616 L 225.215 246.616 L 225.215 289.668 L 230.385 289.668 Z" transform="matrix(1.295683, 0, 0, 1, 2.824357, 0)" style="fill: rgb(0, 152, 201); paint-order: stroke; white-space: pre;"/>
  <path d="M 263.645 249.248 Q 260.167 249.248 257.535 253.76 Q 254.903 258.272 254.903 264.476 L 254.903 289.668 L 261.577 289.668 L 261.577 291.36 L 232.249 291.36 L 232.249 289.668 L 237.419 289.668 L 237.419 248.308 L 232.249 248.308 L 232.249 246.616 L 254.903 246.616 L 254.903 255.64 Q 256.125 250.846 259.603 248.261 Q 263.081 245.676 267.499 245.676 Q 271.917 245.676 274.69 248.167 Q 277.463 250.658 277.463 255.217 Q 277.463 259.776 275.395 262.22 Q 273.327 264.664 269.05 264.664 Q 264.773 264.664 262.752 261.844 Q 260.731 259.024 262.235 254.042 L 265.619 254.042 Q 267.969 249.248 263.645 249.248 Z" transform="matrix(1.295683, 0, 0, 1, 2.824357, 0)" style="fill: rgb(0, 152, 201); paint-order: stroke; white-space: pre;"/>
  <path d="M 299.93 269.27 L 302.656 269.27 L 302.656 262.032 Q 302.656 253.102 301.669 250.047 Q 300.682 246.992 297.862 246.992 Q 296.17 246.992 294.807 247.885 Q 293.444 248.778 293.444 250.329 Q 293.444 251.88 294.008 253.478 L 296.358 253.478 Q 297.11 255.452 297.11 258.225 Q 297.11 260.998 294.76 263.019 Q 292.41 265.04 288.838 265.04 Q 280.754 265.04 280.754 257.238 Q 280.754 245.676 300.4 245.676 Q 311.586 245.676 315.863 249.483 Q 320.14 253.29 320.14 263.442 L 320.14 282.524 Q 320.14 287.412 322.866 287.412 Q 326.062 287.412 326.626 277.73 L 328.036 277.824 Q 327.66 286.096 324.934 289.198 Q 322.208 292.3 316.004 292.3 Q 304.724 292.3 303.032 285.344 Q 301.81 288.916 299.366 290.608 Q 296.922 292.3 292.222 292.3 Q 278.31 292.3 278.31 280.926 Q 278.31 274.252 283.621 271.761 Q 288.932 269.27 299.93 269.27 Z M 296.17 280.832 Q 296.17 285.72 296.687 287.13 Q 297.204 288.54 298.661 288.54 Q 300.118 288.54 301.387 286.143 Q 302.656 283.746 302.656 279.516 L 302.656 270.774 L 301.998 270.774 Q 296.17 270.774 296.17 279.328 L 296.17 280.832 Z" transform="matrix(1.295683, 0, 0, 1, 2.824357, 0)" style="fill: rgb(0, 152, 201); paint-order: stroke; white-space: pre;"/>
  <polygon style="fill: rgb(255, 194, 0); paint-order: fill; stroke: rgb(255, 194, 0); pointer-events: none;" points="348.685 199.81 331.2 187.92 315.113 177.429 321.408 188.619 329.801 197.712 365.471 248.769 371.766 238.977 380.858 225.688 392.748 207.503 403.239 192.816 415.829 177.429 431.216 159.943 449.401 141.059 462.689 127.071 482.273 109.586 494.163 100.493 489.267 98.395 471.782 109.586 448.002 125.672 415.129 152.25 388.551 177.429 361.974 208.203">
    <title>Palomita-amarilla</title>
  </polygon>
  <path style="fill: rgb(58, 58, 58); paint-order: stroke; stroke: rgb(58, 58, 58);" d="M 451.499 148.753 L 436.112 165.539 L 442.11 171.927 L 441.839 186.751 L 439.117 205.199 L 436.638 217.323 L 432.691 231.634 L 426.832 248.834 L 417.073 269.308 L 405.338 290.733 L 415.79 279.192 L 425.098 265.347 L 431.212 253.608 L 436.434 244.285 L 441.093 234.033 L 445.204 224.988 L 448.434 215.273 L 451.284 206.7 L 454.73 194.366 L 457.411 184.773 L 460.587 170.096 L 463.389 157.146 L 451.499 148.753 Z">
    <title>Tercer-ultimo-gancho-gris</title>
  </path>
  <path style="paint-order: stroke; stroke: rgb(58, 58, 58); fill: rgb(58, 58, 58);" d="M 401.841 148.519 L 421.424 131.034 C 422.935 131.034 308.446 66.74 307.257 66.74 L 308.588 87.233 L 308.306 108.265 L 308.119 124.257 C 309.74 123.041 305.493 160.887 304.259 161.813 L 299.727 184.19 L 292.733 204.473 L 281.542 225.454 L 269.652 244.339 L 287.607 221.788 L 299.551 203.238 L 307.341 190.331 L 313.452 178.796 L 316.58 171.622 L 319.332 163.466 L 322.561 151.899 L 324.954 138.427 L 327.003 123.341 L 329.102 103.758 L 353.002 118.264 L 380.05 133.204 L 401.841 148.519 Z">
    <title>Segundo-gancho-gris</title>
  </path>
  <path style="paint-order: stroke; fill: rgb(58, 58, 58); stroke: rgb(58, 58, 58);" d="M 299.202 123.585 L 255.209 122.641 L 259.51 134.776 L 264.349 149.055 L 267.379 165.287 L 268.637 180.972 L 267.944 194.62 L 266.784 204.228 L 263.601 216.153 L 263.497 194.366 L 262.203 181.392 L 259.783 166.128 L 255.348 151.702 L 250.994 141.368 L 246.011 131.349 L 240.162 119.89 L 235.928 112.185 L 231.113 105.785 C 233.885 106.247 297.433 109.727 295.18 109.352 L 299.202 123.585 Z">
    <title>Primer-gancho-gris</title>
  </path>
  <path d="M 26.824 146.101 Q 12.254 146.101 12.254 174.207 L 12.254 181.633 Q 12.254 194.981 16.108 202.548 Q 19.962 210.115 27.482 210.115 Q 37.822 210.115 46.47 189.999 L 48.162 189.999 L 47.504 210.961 L 46.47 210.961 Q 45.906 209.927 45.436 209.504 Q 44.966 209.081 44.073 209.081 Q 43.18 209.081 37.258 210.538 Q 31.336 211.995 25.226 211.995 Q 9.904 211.995 1.491 203.723 Q -6.922 195.451 -6.922 178.86 Q -6.922 162.269 1.867 153.245 Q 10.656 144.221 25.508 144.221 Q 31.242 144.221 36.741 145.678 Q 42.24 147.135 43.18 147.135 Q 44.12 147.135 44.59 146.712 Q 45.06 146.289 45.624 145.255 L 46.658 145.255 L 47.41 165.653 L 45.718 165.653 Q 41.488 156.159 37.023 151.13 Q 32.558 146.101 26.824 146.101 Z" transform="matrix(1.279088, 0, 0, 1, 3.007447, 0)" style="fill: rgb(255, 194, 0); paint-order: stroke; pointer-events: none; white-space: pre;"/>
  <path d="M 86.412 168.943 Q 82.934 168.943 80.302 173.455 Q 77.67 177.967 77.67 184.171 L 77.67 209.363 L 84.344 209.363 L 84.344 211.055 L 55.016 211.055 L 55.016 209.363 L 60.186 209.363 L 60.186 168.003 L 55.016 168.003 L 55.016 166.311 L 77.67 166.311 L 77.67 175.335 Q 78.892 170.541 82.37 167.956 Q 85.848 165.371 90.266 165.371 Q 94.684 165.371 97.457 167.862 Q 100.23 170.353 100.23 174.912 Q 100.23 179.471 98.162 181.915 Q 96.094 184.359 91.817 184.359 Q 87.54 184.359 85.519 181.539 Q 83.498 178.719 85.002 173.737 L 88.386 173.737 Q 90.736 168.943 86.412 168.943 Z" transform="matrix(1.279088, 0, 0, 1, 3.007447, 0)" style="fill: rgb(255, 194, 0); paint-order: stroke; pointer-events: none; white-space: pre;"/>
  <path d="M 125.795 211.995 Q 113.669 211.995 107.606 205.744 Q 101.543 199.493 101.543 188.354 Q 101.543 177.215 108.358 171.293 Q 115.173 165.371 125.701 165.371 Q 147.039 165.371 146.193 186.803 L 119.685 186.803 L 119.685 190.469 Q 119.685 199.681 122.035 204.381 Q 124.385 209.081 130.213 209.081 Q 141.117 209.081 144.501 197.425 L 146.193 197.707 Q 144.407 204.475 139.754 208.235 Q 135.101 211.995 125.795 211.995 Z M 119.779 184.923 L 129.461 184.923 L 129.461 180.317 Q 129.461 172.703 128.568 169.93 Q 127.675 167.157 124.996 167.157 Q 122.317 167.157 121.048 170.118 Q 119.779 173.079 119.779 180.317 Z" transform="matrix(1.279088, 0, 0, 1, 3.007447, 0)" style="fill: rgb(255, 194, 0); paint-order: stroke; pointer-events: none; white-space: pre;"/>
  <path d="M 172.126 188.965 L 174.852 188.965 L 174.852 181.727 Q 174.852 172.797 173.865 169.742 Q 172.878 166.687 170.058 166.687 Q 168.366 166.687 167.003 167.58 Q 165.64 168.473 165.64 170.024 Q 165.64 171.575 166.204 173.173 L 168.554 173.173 Q 169.306 175.147 169.306 177.92 Q 169.306 180.693 166.956 182.714 Q 164.606 184.735 161.034 184.735 Q 152.95 184.735 152.95 176.933 Q 152.95 165.371 172.596 165.371 Q 183.782 165.371 188.059 169.178 Q 192.336 172.985 192.336 183.137 L 192.336 202.219 Q 192.336 207.107 195.062 207.107 Q 198.258 207.107 198.822 197.425 L 200.232 197.519 Q 199.856 205.791 197.13 208.893 Q 194.404 211.995 188.2 211.995 Q 176.92 211.995 175.228 205.039 Q 174.006 208.611 171.562 210.303 Q 169.118 211.995 164.418 211.995 Q 150.506 211.995 150.506 200.621 Q 150.506 193.947 155.817 191.456 Q 161.128 188.965 172.126 188.965 Z M 168.366 200.527 Q 168.366 205.415 168.883 206.825 Q 169.4 208.235 170.857 208.235 Q 172.314 208.235 173.583 205.838 Q 174.852 203.441 174.852 199.211 L 174.852 190.469 L 174.194 190.469 Q 168.366 190.469 168.366 199.023 L 168.366 200.527 Z" transform="matrix(1.279088, 0, 0, 1, 3.007447, 0)" style="fill: rgb(255, 194, 0); paint-order: stroke; pointer-events: none; white-space: pre;"/>
</svg>