<?xml version="1.0"?>
<svg width="288" height="250" xmlns="http://www.w3.org/2000/svg" xmlns:svg="http://www.w3.org/2000/svg">
 <g class="layer">
  <title>Layer 1</title>
  <polygon fill="rgb(255, 194, 0)" id="svg_8" points="129.68499755859375,146.80999755859375 112.20001220703125,134.9199981689453 96.11300659179688,124.42900085449219 102.40798950195312,135.61900329589844 110.80099487304688,144.71200561523438 146.47100830078125,195.7689971923828 152.7659912109375,185.9770050048828 161.85800170898438,172.68800354003906 173.74798583984375,154.5030059814453 184.239013671875,139.8159942626953 196.82901000976562,124.42900085449219 212.21600341796875,106.9429931640625 230.4010009765625,88.05900573730469 243.68899536132812,74.07099914550781 263.27301025390625,56.58599853515625 275.1629943847656,47.49299621582031 270.2669982910156,45.394996643066406 252.78201293945312,56.58599853515625 229.00201416015625,72.6719970703125 196.12899780273438,99.25 169.55099487304688,124.42900085449219 142.9739990234375,155.2030029296875 " stroke="rgb(255, 194, 0)">
   <title>Palomita-amarilla</title>
  </polygon>
  <path d="m232.5,95.75l-15.39,16.79l6,6.39l-0.27,14.82l-2.72,18.45l-2.48,12.12l-3.95,14.31l-5.86,17.2l-9.76,20.48l-11.73,21.42l10.45,-11.54l9.31,-13.84l6.11,-11.74l5.22,-9.33l4.66,-10.25l4.11,-9.04l3.23,-9.72l2.85,-8.57l3.45,-12.33l2.68,-9.6l3.18,-14.67l2.8,-12.95l-11.89,-8.4z" fill="rgb(58, 58, 58)" id="svg_9" stroke="rgb(58, 58, 58)">
   <title>Tercer-ultimo-gancho-gris</title>
  </path>
  <path d="m182.84,95.52l19.58,-17.49c1.52,0 -112.97,-64.29 -114.16,-64.29l1.33,20.49l-0.28,21.04l-0.19,15.99c1.62,-1.22 -2.63,36.63 -3.86,37.55l-4.53,22.38l-7,20.28l-11.19,20.98l-11.89,18.89l17.96,-22.55l11.94,-18.55l7.79,-12.91l6.11,-11.53l3.13,-7.18l2.75,-8.15l3.23,-11.57l2.39,-13.47l2.05,-15.09l2.1,-19.58l23.9,14.5l27.05,14.94l21.79,15.32z" fill="rgb(58, 58, 58)" id="svg_10" stroke="rgb(58, 58, 58)">
   <title>Segundo-gancho-gris</title>
  </path>
  <path d="m80.2,70.58l-43.99,-0.94l4.3,12.14l4.84,14.28l3.03,16.23l1.26,15.68l-0.7,13.65l-1.16,9.61l-3.18,11.92l-0.1,-21.78l-1.3,-12.98l-2.42,-15.26l-4.43,-14.43l-4.36,-10.33l-4.98,-10.02l-5.85,-11.46l-4.23,-7.7l-4.82,-6.41c2.77,0.47 66.32,3.95 64.07,3.57l4.02,14.23z" fill="rgb(58, 58, 58)" id="svg_11" stroke="rgb(58, 58, 58)" style="--darkreader-inline-fill: #414749; --darkreader-inline-stroke: #414749;">
   <title>Primer-gancho-gris</title>
  </path>
 </g>
</svg>